<?xml version="1.0" encoding="utf-8"?>
<svg xmlns="http://www.w3.org/2000/svg" xmlns:xlink="http://www.w3.org/1999/xlink" style="margin: auto; background: none; display: block; shape-rendering: auto;" width="190px" height="190px" viewBox="0 0 100 100" preserveAspectRatio="xMidYMid">
<g transform="rotate(0 50 50)">
  <rect x="46" y="32.5" rx="0.32" ry="0.32" width="8" height="5" fill="#f9ae5c">
    <animate attributeName="opacity" values="1;0" keyTimes="0;1" dur="0.7874015748031495s" begin="-0.7759899577770171s" repeatCount="indefinite"></animate>
  </rect>
</g><g transform="rotate(5.217391304347826 50 50)">
  <rect x="46" y="32.5" rx="0.32" ry="0.32" width="8" height="5" fill="#f9ae5c">
    <animate attributeName="opacity" values="1;0" keyTimes="0;1" dur="0.7874015748031495s" begin="-0.7645783407508845s" repeatCount="indefinite"></animate>
  </rect>
</g><g transform="rotate(10.434782608695652 50 50)">
  <rect x="46" y="32.5" rx="0.32" ry="0.32" width="8" height="5" fill="#f9ae5c">
    <animate attributeName="opacity" values="1;0" keyTimes="0;1" dur="0.7874015748031495s" begin="-0.7531667237247518s" repeatCount="indefinite"></animate>
  </rect>
</g><g transform="rotate(15.652173913043478 50 50)">
  <rect x="46" y="32.5" rx="0.32" ry="0.32" width="8" height="5" fill="#f9ae5c">
    <animate attributeName="opacity" values="1;0" keyTimes="0;1" dur="0.7874015748031495s" begin="-0.7417551066986192s" repeatCount="indefinite"></animate>
  </rect>
</g><g transform="rotate(20.869565217391305 50 50)">
  <rect x="46" y="32.5" rx="0.32" ry="0.32" width="8" height="5" fill="#f9ae5c">
    <animate attributeName="opacity" values="1;0" keyTimes="0;1" dur="0.7874015748031495s" begin="-0.7303434896724866s" repeatCount="indefinite"></animate>
  </rect>
</g><g transform="rotate(26.08695652173913 50 50)">
  <rect x="46" y="32.5" rx="0.32" ry="0.32" width="8" height="5" fill="#f9ae5c">
    <animate attributeName="opacity" values="1;0" keyTimes="0;1" dur="0.7874015748031495s" begin="-0.718931872646354s" repeatCount="indefinite"></animate>
  </rect>
</g><g transform="rotate(31.304347826086957 50 50)">
  <rect x="46" y="32.5" rx="0.32" ry="0.32" width="8" height="5" fill="#f9ae5c">
    <animate attributeName="opacity" values="1;0" keyTimes="0;1" dur="0.7874015748031495s" begin="-0.7075202556202215s" repeatCount="indefinite"></animate>
  </rect>
</g><g transform="rotate(36.52173913043478 50 50)">
  <rect x="46" y="32.5" rx="0.32" ry="0.32" width="8" height="5" fill="#f9ae5c">
    <animate attributeName="opacity" values="1;0" keyTimes="0;1" dur="0.7874015748031495s" begin="-0.6961086385940888s" repeatCount="indefinite"></animate>
  </rect>
</g><g transform="rotate(41.73913043478261 50 50)">
  <rect x="46" y="32.5" rx="0.32" ry="0.32" width="8" height="5" fill="#f9ae5c">
    <animate attributeName="opacity" values="1;0" keyTimes="0;1" dur="0.7874015748031495s" begin="-0.6846970215679562s" repeatCount="indefinite"></animate>
  </rect>
</g><g transform="rotate(46.95652173913044 50 50)">
  <rect x="46" y="32.5" rx="0.32" ry="0.32" width="8" height="5" fill="#f9ae5c">
    <animate attributeName="opacity" values="1;0" keyTimes="0;1" dur="0.7874015748031495s" begin="-0.6732854045418236s" repeatCount="indefinite"></animate>
  </rect>
</g><g transform="rotate(52.17391304347826 50 50)">
  <rect x="46" y="32.5" rx="0.32" ry="0.32" width="8" height="5" fill="#f9ae5c">
    <animate attributeName="opacity" values="1;0" keyTimes="0;1" dur="0.7874015748031495s" begin="-0.661873787515691s" repeatCount="indefinite"></animate>
  </rect>
</g><g transform="rotate(57.391304347826086 50 50)">
  <rect x="46" y="32.5" rx="0.32" ry="0.32" width="8" height="5" fill="#f9ae5c">
    <animate attributeName="opacity" values="1;0" keyTimes="0;1" dur="0.7874015748031495s" begin="-0.6504621704895585s" repeatCount="indefinite"></animate>
  </rect>
</g><g transform="rotate(62.608695652173914 50 50)">
  <rect x="46" y="32.5" rx="0.32" ry="0.32" width="8" height="5" fill="#f9ae5c">
    <animate attributeName="opacity" values="1;0" keyTimes="0;1" dur="0.7874015748031495s" begin="-0.6390505534634258s" repeatCount="indefinite"></animate>
  </rect>
</g><g transform="rotate(67.82608695652173 50 50)">
  <rect x="46" y="32.5" rx="0.32" ry="0.32" width="8" height="5" fill="#f9ae5c">
    <animate attributeName="opacity" values="1;0" keyTimes="0;1" dur="0.7874015748031495s" begin="-0.6276389364372932s" repeatCount="indefinite"></animate>
  </rect>
</g><g transform="rotate(73.04347826086956 50 50)">
  <rect x="46" y="32.5" rx="0.32" ry="0.32" width="8" height="5" fill="#f9ae5c">
    <animate attributeName="opacity" values="1;0" keyTimes="0;1" dur="0.7874015748031495s" begin="-0.6162273194111606s" repeatCount="indefinite"></animate>
  </rect>
</g><g transform="rotate(78.26086956521739 50 50)">
  <rect x="46" y="32.5" rx="0.32" ry="0.32" width="8" height="5" fill="#f9ae5c">
    <animate attributeName="opacity" values="1;0" keyTimes="0;1" dur="0.7874015748031495s" begin="-0.604815702385028s" repeatCount="indefinite"></animate>
  </rect>
</g><g transform="rotate(83.47826086956522 50 50)">
  <rect x="46" y="32.5" rx="0.32" ry="0.32" width="8" height="5" fill="#f9ae5c">
    <animate attributeName="opacity" values="1;0" keyTimes="0;1" dur="0.7874015748031495s" begin="-0.5934040853588954s" repeatCount="indefinite"></animate>
  </rect>
</g><g transform="rotate(88.69565217391305 50 50)">
  <rect x="46" y="32.5" rx="0.32" ry="0.32" width="8" height="5" fill="#f9ae5c">
    <animate attributeName="opacity" values="1;0" keyTimes="0;1" dur="0.7874015748031495s" begin="-0.5819924683327627s" repeatCount="indefinite"></animate>
  </rect>
</g><g transform="rotate(93.91304347826087 50 50)">
  <rect x="46" y="32.5" rx="0.32" ry="0.32" width="8" height="5" fill="#f9ae5c">
    <animate attributeName="opacity" values="1;0" keyTimes="0;1" dur="0.7874015748031495s" begin="-0.5705808513066302s" repeatCount="indefinite"></animate>
  </rect>
</g><g transform="rotate(99.1304347826087 50 50)">
  <rect x="46" y="32.5" rx="0.32" ry="0.32" width="8" height="5" fill="#f9ae5c">
    <animate attributeName="opacity" values="1;0" keyTimes="0;1" dur="0.7874015748031495s" begin="-0.5591692342804976s" repeatCount="indefinite"></animate>
  </rect>
</g><g transform="rotate(104.34782608695652 50 50)">
  <rect x="46" y="32.5" rx="0.32" ry="0.32" width="8" height="5" fill="#f9ae5c">
    <animate attributeName="opacity" values="1;0" keyTimes="0;1" dur="0.7874015748031495s" begin="-0.547757617254365s" repeatCount="indefinite"></animate>
  </rect>
</g><g transform="rotate(109.56521739130434 50 50)">
  <rect x="46" y="32.5" rx="0.32" ry="0.32" width="8" height="5" fill="#f9ae5c">
    <animate attributeName="opacity" values="1;0" keyTimes="0;1" dur="0.7874015748031495s" begin="-0.5363460002282324s" repeatCount="indefinite"></animate>
  </rect>
</g><g transform="rotate(114.78260869565217 50 50)">
  <rect x="46" y="32.5" rx="0.32" ry="0.32" width="8" height="5" fill="#f9ae5c">
    <animate attributeName="opacity" values="1;0" keyTimes="0;1" dur="0.7874015748031495s" begin="-0.5249343832020997s" repeatCount="indefinite"></animate>
  </rect>
</g><g transform="rotate(120 50 50)">
  <rect x="46" y="32.5" rx="0.32" ry="0.32" width="8" height="5" fill="#f9ae5c">
    <animate attributeName="opacity" values="1;0" keyTimes="0;1" dur="0.7874015748031495s" begin="-0.5135227661759671s" repeatCount="indefinite"></animate>
  </rect>
</g><g transform="rotate(125.21739130434783 50 50)">
  <rect x="46" y="32.5" rx="0.32" ry="0.32" width="8" height="5" fill="#f9ae5c">
    <animate attributeName="opacity" values="1;0" keyTimes="0;1" dur="0.7874015748031495s" begin="-0.5021111491498346s" repeatCount="indefinite"></animate>
  </rect>
</g><g transform="rotate(130.43478260869566 50 50)">
  <rect x="46" y="32.5" rx="0.32" ry="0.32" width="8" height="5" fill="#f9ae5c">
    <animate attributeName="opacity" values="1;0" keyTimes="0;1" dur="0.7874015748031495s" begin="-0.49069953212370193s" repeatCount="indefinite"></animate>
  </rect>
</g><g transform="rotate(135.65217391304347 50 50)">
  <rect x="46" y="32.5" rx="0.32" ry="0.32" width="8" height="5" fill="#f9ae5c">
    <animate attributeName="opacity" values="1;0" keyTimes="0;1" dur="0.7874015748031495s" begin="-0.47928791509756935s" repeatCount="indefinite"></animate>
  </rect>
</g><g transform="rotate(140.8695652173913 50 50)">
  <rect x="46" y="32.5" rx="0.32" ry="0.32" width="8" height="5" fill="#f9ae5c">
    <animate attributeName="opacity" values="1;0" keyTimes="0;1" dur="0.7874015748031495s" begin="-0.46787629807143677s" repeatCount="indefinite"></animate>
  </rect>
</g><g transform="rotate(146.08695652173913 50 50)">
  <rect x="46" y="32.5" rx="0.32" ry="0.32" width="8" height="5" fill="#f9ae5c">
    <animate attributeName="opacity" values="1;0" keyTimes="0;1" dur="0.7874015748031495s" begin="-0.45646468104530413s" repeatCount="indefinite"></animate>
  </rect>
</g><g transform="rotate(151.30434782608697 50 50)">
  <rect x="46" y="32.5" rx="0.32" ry="0.32" width="8" height="5" fill="#f9ae5c">
    <animate attributeName="opacity" values="1;0" keyTimes="0;1" dur="0.7874015748031495s" begin="-0.44505306401917155s" repeatCount="indefinite"></animate>
  </rect>
</g><g transform="rotate(156.52173913043478 50 50)">
  <rect x="46" y="32.5" rx="0.32" ry="0.32" width="8" height="5" fill="#f9ae5c">
    <animate attributeName="opacity" values="1;0" keyTimes="0;1" dur="0.7874015748031495s" begin="-0.4336414469930389s" repeatCount="indefinite"></animate>
  </rect>
</g><g transform="rotate(161.7391304347826 50 50)">
  <rect x="46" y="32.5" rx="0.32" ry="0.32" width="8" height="5" fill="#f9ae5c">
    <animate attributeName="opacity" values="1;0" keyTimes="0;1" dur="0.7874015748031495s" begin="-0.42222982996690633s" repeatCount="indefinite"></animate>
  </rect>
</g><g transform="rotate(166.95652173913044 50 50)">
  <rect x="46" y="32.5" rx="0.32" ry="0.32" width="8" height="5" fill="#f9ae5c">
    <animate attributeName="opacity" values="1;0" keyTimes="0;1" dur="0.7874015748031495s" begin="-0.41081821294077375s" repeatCount="indefinite"></animate>
  </rect>
</g><g transform="rotate(172.17391304347825 50 50)">
  <rect x="46" y="32.5" rx="0.32" ry="0.32" width="8" height="5" fill="#f9ae5c">
    <animate attributeName="opacity" values="1;0" keyTimes="0;1" dur="0.7874015748031495s" begin="-0.3994065959146411s" repeatCount="indefinite"></animate>
  </rect>
</g><g transform="rotate(177.3913043478261 50 50)">
  <rect x="46" y="32.5" rx="0.32" ry="0.32" width="8" height="5" fill="#f9ae5c">
    <animate attributeName="opacity" values="1;0" keyTimes="0;1" dur="0.7874015748031495s" begin="-0.38799497888850853s" repeatCount="indefinite"></animate>
  </rect>
</g><g transform="rotate(182.6086956521739 50 50)">
  <rect x="46" y="32.5" rx="0.32" ry="0.32" width="8" height="5" fill="#f9ae5c">
    <animate attributeName="opacity" values="1;0" keyTimes="0;1" dur="0.7874015748031495s" begin="-0.3765833618623759s" repeatCount="indefinite"></animate>
  </rect>
</g><g transform="rotate(187.82608695652175 50 50)">
  <rect x="46" y="32.5" rx="0.32" ry="0.32" width="8" height="5" fill="#f9ae5c">
    <animate attributeName="opacity" values="1;0" keyTimes="0;1" dur="0.7874015748031495s" begin="-0.3651717448362433s" repeatCount="indefinite"></animate>
  </rect>
</g><g transform="rotate(193.04347826086956 50 50)">
  <rect x="46" y="32.5" rx="0.32" ry="0.32" width="8" height="5" fill="#f9ae5c">
    <animate attributeName="opacity" values="1;0" keyTimes="0;1" dur="0.7874015748031495s" begin="-0.35376012781011074s" repeatCount="indefinite"></animate>
  </rect>
</g><g transform="rotate(198.2608695652174 50 50)">
  <rect x="46" y="32.5" rx="0.32" ry="0.32" width="8" height="5" fill="#f9ae5c">
    <animate attributeName="opacity" values="1;0" keyTimes="0;1" dur="0.7874015748031495s" begin="-0.3423485107839781s" repeatCount="indefinite"></animate>
  </rect>
</g><g transform="rotate(203.47826086956522 50 50)">
  <rect x="46" y="32.5" rx="0.32" ry="0.32" width="8" height="5" fill="#f9ae5c">
    <animate attributeName="opacity" values="1;0" keyTimes="0;1" dur="0.7874015748031495s" begin="-0.3309368937578455s" repeatCount="indefinite"></animate>
  </rect>
</g><g transform="rotate(208.69565217391303 50 50)">
  <rect x="46" y="32.5" rx="0.32" ry="0.32" width="8" height="5" fill="#f9ae5c">
    <animate attributeName="opacity" values="1;0" keyTimes="0;1" dur="0.7874015748031495s" begin="-0.3195252767317129s" repeatCount="indefinite"></animate>
  </rect>
</g><g transform="rotate(213.91304347826087 50 50)">
  <rect x="46" y="32.5" rx="0.32" ry="0.32" width="8" height="5" fill="#f9ae5c">
    <animate attributeName="opacity" values="1;0" keyTimes="0;1" dur="0.7874015748031495s" begin="-0.3081136597055803s" repeatCount="indefinite"></animate>
  </rect>
</g><g transform="rotate(219.1304347826087 50 50)">
  <rect x="46" y="32.5" rx="0.32" ry="0.32" width="8" height="5" fill="#f9ae5c">
    <animate attributeName="opacity" values="1;0" keyTimes="0;1" dur="0.7874015748031495s" begin="-0.2967020426794477s" repeatCount="indefinite"></animate>
  </rect>
</g><g transform="rotate(224.34782608695653 50 50)">
  <rect x="46" y="32.5" rx="0.32" ry="0.32" width="8" height="5" fill="#f9ae5c">
    <animate attributeName="opacity" values="1;0" keyTimes="0;1" dur="0.7874015748031495s" begin="-0.2852904256533151s" repeatCount="indefinite"></animate>
  </rect>
</g><g transform="rotate(229.56521739130434 50 50)">
  <rect x="46" y="32.5" rx="0.32" ry="0.32" width="8" height="5" fill="#f9ae5c">
    <animate attributeName="opacity" values="1;0" keyTimes="0;1" dur="0.7874015748031495s" begin="-0.2738788086271825s" repeatCount="indefinite"></animate>
  </rect>
</g><g transform="rotate(234.7826086956522 50 50)">
  <rect x="46" y="32.5" rx="0.32" ry="0.32" width="8" height="5" fill="#f9ae5c">
    <animate attributeName="opacity" values="1;0" keyTimes="0;1" dur="0.7874015748031495s" begin="-0.26246719160104987s" repeatCount="indefinite"></animate>
  </rect>
</g><g transform="rotate(240 50 50)">
  <rect x="46" y="32.5" rx="0.32" ry="0.32" width="8" height="5" fill="#f9ae5c">
    <animate attributeName="opacity" values="1;0" keyTimes="0;1" dur="0.7874015748031495s" begin="-0.2510555745749173s" repeatCount="indefinite"></animate>
  </rect>
</g><g transform="rotate(245.2173913043478 50 50)">
  <rect x="46" y="32.5" rx="0.32" ry="0.32" width="8" height="5" fill="#f9ae5c">
    <animate attributeName="opacity" values="1;0" keyTimes="0;1" dur="0.7874015748031495s" begin="-0.23964395754878468s" repeatCount="indefinite"></animate>
  </rect>
</g><g transform="rotate(250.43478260869566 50 50)">
  <rect x="46" y="32.5" rx="0.32" ry="0.32" width="8" height="5" fill="#f9ae5c">
    <animate attributeName="opacity" values="1;0" keyTimes="0;1" dur="0.7874015748031495s" begin="-0.22823234052265207s" repeatCount="indefinite"></animate>
  </rect>
</g><g transform="rotate(255.65217391304347 50 50)">
  <rect x="46" y="32.5" rx="0.32" ry="0.32" width="8" height="5" fill="#f9ae5c">
    <animate attributeName="opacity" values="1;0" keyTimes="0;1" dur="0.7874015748031495s" begin="-0.21682072349651946s" repeatCount="indefinite"></animate>
  </rect>
</g><g transform="rotate(260.8695652173913 50 50)">
  <rect x="46" y="32.5" rx="0.32" ry="0.32" width="8" height="5" fill="#f9ae5c">
    <animate attributeName="opacity" values="1;0" keyTimes="0;1" dur="0.7874015748031495s" begin="-0.20540910647038688s" repeatCount="indefinite"></animate>
  </rect>
</g><g transform="rotate(266.0869565217391 50 50)">
  <rect x="46" y="32.5" rx="0.32" ry="0.32" width="8" height="5" fill="#f9ae5c">
    <animate attributeName="opacity" values="1;0" keyTimes="0;1" dur="0.7874015748031495s" begin="-0.19399748944425427s" repeatCount="indefinite"></animate>
  </rect>
</g><g transform="rotate(271.30434782608694 50 50)">
  <rect x="46" y="32.5" rx="0.32" ry="0.32" width="8" height="5" fill="#f9ae5c">
    <animate attributeName="opacity" values="1;0" keyTimes="0;1" dur="0.7874015748031495s" begin="-0.18258587241812166s" repeatCount="indefinite"></animate>
  </rect>
</g><g transform="rotate(276.5217391304348 50 50)">
  <rect x="46" y="32.5" rx="0.32" ry="0.32" width="8" height="5" fill="#f9ae5c">
    <animate attributeName="opacity" values="1;0" keyTimes="0;1" dur="0.7874015748031495s" begin="-0.17117425539198905s" repeatCount="indefinite"></animate>
  </rect>
</g><g transform="rotate(281.7391304347826 50 50)">
  <rect x="46" y="32.5" rx="0.32" ry="0.32" width="8" height="5" fill="#f9ae5c">
    <animate attributeName="opacity" values="1;0" keyTimes="0;1" dur="0.7874015748031495s" begin="-0.15976263836585644s" repeatCount="indefinite"></animate>
  </rect>
</g><g transform="rotate(286.95652173913044 50 50)">
  <rect x="46" y="32.5" rx="0.32" ry="0.32" width="8" height="5" fill="#f9ae5c">
    <animate attributeName="opacity" values="1;0" keyTimes="0;1" dur="0.7874015748031495s" begin="-0.14835102133972386s" repeatCount="indefinite"></animate>
  </rect>
</g><g transform="rotate(292.17391304347825 50 50)">
  <rect x="46" y="32.5" rx="0.32" ry="0.32" width="8" height="5" fill="#f9ae5c">
    <animate attributeName="opacity" values="1;0" keyTimes="0;1" dur="0.7874015748031495s" begin="-0.13693940431359125s" repeatCount="indefinite"></animate>
  </rect>
</g><g transform="rotate(297.39130434782606 50 50)">
  <rect x="46" y="32.5" rx="0.32" ry="0.32" width="8" height="5" fill="#f9ae5c">
    <animate attributeName="opacity" values="1;0" keyTimes="0;1" dur="0.7874015748031495s" begin="-0.12552778728745864s" repeatCount="indefinite"></animate>
  </rect>
</g><g transform="rotate(302.60869565217394 50 50)">
  <rect x="46" y="32.5" rx="0.32" ry="0.32" width="8" height="5" fill="#f9ae5c">
    <animate attributeName="opacity" values="1;0" keyTimes="0;1" dur="0.7874015748031495s" begin="-0.11411617026132603s" repeatCount="indefinite"></animate>
  </rect>
</g><g transform="rotate(307.82608695652175 50 50)">
  <rect x="46" y="32.5" rx="0.32" ry="0.32" width="8" height="5" fill="#f9ae5c">
    <animate attributeName="opacity" values="1;0" keyTimes="0;1" dur="0.7874015748031495s" begin="-0.10270455323519344s" repeatCount="indefinite"></animate>
  </rect>
</g><g transform="rotate(313.04347826086956 50 50)">
  <rect x="46" y="32.5" rx="0.32" ry="0.32" width="8" height="5" fill="#f9ae5c">
    <animate attributeName="opacity" values="1;0" keyTimes="0;1" dur="0.7874015748031495s" begin="-0.09129293620906083s" repeatCount="indefinite"></animate>
  </rect>
</g><g transform="rotate(318.2608695652174 50 50)">
  <rect x="46" y="32.5" rx="0.32" ry="0.32" width="8" height="5" fill="#f9ae5c">
    <animate attributeName="opacity" values="1;0" keyTimes="0;1" dur="0.7874015748031495s" begin="-0.07988131918292822s" repeatCount="indefinite"></animate>
  </rect>
</g><g transform="rotate(323.4782608695652 50 50)">
  <rect x="46" y="32.5" rx="0.32" ry="0.32" width="8" height="5" fill="#f9ae5c">
    <animate attributeName="opacity" values="1;0" keyTimes="0;1" dur="0.7874015748031495s" begin="-0.06846970215679563s" repeatCount="indefinite"></animate>
  </rect>
</g><g transform="rotate(328.69565217391306 50 50)">
  <rect x="46" y="32.5" rx="0.32" ry="0.32" width="8" height="5" fill="#f9ae5c">
    <animate attributeName="opacity" values="1;0" keyTimes="0;1" dur="0.7874015748031495s" begin="-0.05705808513066302s" repeatCount="indefinite"></animate>
  </rect>
</g><g transform="rotate(333.9130434782609 50 50)">
  <rect x="46" y="32.5" rx="0.32" ry="0.32" width="8" height="5" fill="#f9ae5c">
    <animate attributeName="opacity" values="1;0" keyTimes="0;1" dur="0.7874015748031495s" begin="-0.045646468104530415s" repeatCount="indefinite"></animate>
  </rect>
</g><g transform="rotate(339.1304347826087 50 50)">
  <rect x="46" y="32.5" rx="0.32" ry="0.32" width="8" height="5" fill="#f9ae5c">
    <animate attributeName="opacity" values="1;0" keyTimes="0;1" dur="0.7874015748031495s" begin="-0.03423485107839781s" repeatCount="indefinite"></animate>
  </rect>
</g><g transform="rotate(344.3478260869565 50 50)">
  <rect x="46" y="32.5" rx="0.32" ry="0.32" width="8" height="5" fill="#f9ae5c">
    <animate attributeName="opacity" values="1;0" keyTimes="0;1" dur="0.7874015748031495s" begin="-0.022823234052265207s" repeatCount="indefinite"></animate>
  </rect>
</g><g transform="rotate(349.5652173913044 50 50)">
  <rect x="46" y="32.5" rx="0.32" ry="0.32" width="8" height="5" fill="#f9ae5c">
    <animate attributeName="opacity" values="1;0" keyTimes="0;1" dur="0.7874015748031495s" begin="-0.011411617026132604s" repeatCount="indefinite"></animate>
  </rect>
</g><g transform="rotate(354.7826086956522 50 50)">
  <rect x="46" y="32.5" rx="0.32" ry="0.32" width="8" height="5" fill="#f9ae5c">
    <animate attributeName="opacity" values="1;0" keyTimes="0;1" dur="0.7874015748031495s" begin="0s" repeatCount="indefinite"></animate>
  </rect>
</g>
<!-- [ldio] generated by https://loading.io/ --></svg>